<?xml version="1.0" encoding="UTF-8"?>
<svg viewBox="0 0 500 400" xmlns="http://www.w3.org/2000/svg">
  <!-- Fondo -->
  <rect width="500" height="400" fill="#f8f9fa" rx="10" ry="10"/>

  <!-- Dispositivo móvil -->
  <rect x="130" y="80" width="240" height="250" rx="20" ry="20" fill="#4a5568" stroke="#2d3748" stroke-width="4"/>
  <rect x="140" y="100" width="220" height="195" rx="2" ry="2" fill="#e2e8f0"/>

  <!-- Botón del teléfono -->
  <circle cx="250" cy="310" r="12" fill="#e2e8f0" stroke="#2d3748" stroke-width="2"/>

  <!-- Mensajes de texto en pantalla -->
  <rect x="155" y="110" width="150" height="30" rx="10" ry="10" fill="#4299e1"/>
  <text x="170" y="130" font-family="Arial" font-size="12" fill="white">¡Eres un perdedor!</text>

  <rect x="155" y="150" width="190" height="30" rx="10" ry="10" fill="#4299e1"/>
  <text x="170" y="170" font-family="Arial" font-size="12" fill="white">¡Nadie te quiere en la clase!</text>

  <rect x="195" y="190" width="150" height="30" rx="10" ry="10" fill="#f56565"/>
  <text x="210" y="210" font-family="Arial" font-size="12" fill="white">Por favor, déjenme en paz</text>

  <rect x="155" y="230" width="170" height="30" rx="10" ry="10" fill="#4299e1"/>
  <text x="170" y="250" font-family="Arial" font-size="12" fill="white">Todos se ríen de ti! 😂</text>

  <!-- Figura triste -->
  <g transform="translate(250, 350)">
    <circle cx="0" cy="0" r="20" fill="#fbd38d"/>
    <circle cx="-7" cy="-5" r="2" fill="#2d3748"/>
    <circle cx="7" cy="-5" r="2" fill="#2d3748"/>
    <path d="M-8,10 C-4,5 4,5 8,10" stroke="#2d3748" stroke-width="2" fill="none"/>
    <text x="-80" y="30" font-family="Arial" font-size="14" font-weight="bold" fill="#2d3748">CIBERACOSO</text>
  </g>
</svg>
